<?xml version="1.0" encoding="utf-8"?>
<!-- Generator: Adobe Illustrator 27.0.0, SVG Export Plug-In . SVG Version: 6.00 Build 0)  -->
<svg version="1.1" id="katman_1" xmlns="http://www.w3.org/2000/svg" xmlns:xlink="http://www.w3.org/1999/xlink" x="0px" y="0px"
	 viewBox="0 0 144 25" style="enable-background:new 0 0 144 25;" xml:space="preserve">
<style type="text/css">
	.st0{fill:#FFFFFF;}
</style>
<path class="st0" d="M123.2,24.2c-1.9,0-3.5-0.4-4.9-1.1s-2.4-1.7-3.2-2.9c-0.7-1.2-1.1-2.6-1.1-4.2c0-1.7,0.4-3.2,1.1-4.5
	s1.7-2.3,2.9-3c1.2-0.7,2.6-1.1,4.1-1.1c1.8,0,3.3,0.4,4.4,1.2c1.2,0.8,2,1.8,2.5,3.1s0.8,2.7,0.8,4.3c0,0.2,0,0.5,0,0.8
	s-0.1,0.5-0.1,0.6h-11c0.2,0.7,0.5,1.2,0.9,1.7c0.4,0.4,0.9,0.8,1.6,1c0.6,0.2,1.4,0.3,2.1,0.3h4.5v3.7h-4.6V24.2z M118.6,14.5h6.8
	c0-0.4-0.1-0.8-0.2-1.1c-0.1-0.4-0.3-0.7-0.4-1c-0.2-0.3-0.4-0.5-0.7-0.7c-0.3-0.2-0.6-0.3-0.9-0.4c-0.3-0.1-0.7-0.2-1.1-0.2
	c-0.5,0-1,0.1-1.4,0.3s-0.7,0.4-1,0.8c-0.3,0.3-0.5,0.7-0.7,1.1C118.8,13.7,118.7,14.1,118.6,14.5z"/>
<path class="st0" d="M104.3,24.6c-1,0-1.8-0.3-2.6-0.8c-0.8-0.5-1.3-1.2-1.6-2L95.4,7.9h4.8L104,20c0,0.1,0.1,0.1,0.2,0.2
	c0.1,0,0.1,0.1,0.2,0.1s0.2,0,0.2-0.1c0.1,0,0.1-0.1,0.2-0.2l3.8-12.1h4.7l-4.7,13.9c-0.3,0.8-0.8,1.5-1.6,2
	C106.1,24.3,105.2,24.6,104.3,24.6z"/>
<path class="st0" d="M84.4,24.6c-1.5,0-2.8-0.4-3.9-1.2s-2-1.8-2.6-3.1C77.3,19,77,17.6,77,16c0-1.6,0.3-3.1,1-4.4s1.7-2.3,3-3.1
	s2.9-1.2,4.7-1.2c1.8,0,3.4,0.4,4.6,1.2c1.3,0.8,2.2,1.8,2.9,3.1c0.7,1.3,1,2.7,1,4.3V24h-4.4v-2.7h-0.1c-0.3,0.6-0.7,1.1-1.2,1.6
	s-1,0.8-1.7,1.1C86.2,24.5,85.4,24.6,84.4,24.6z M85.7,20.9c0.9,0,1.6-0.2,2.2-0.6s1.1-1,1.4-1.7s0.5-1.6,0.5-2.5
	c0-0.9-0.2-1.7-0.5-2.4s-0.8-1.3-1.4-1.7s-1.4-0.6-2.2-0.6c-0.9,0-1.6,0.2-2.3,0.6c-0.6,0.4-1.1,1-1.4,1.7s-0.5,1.5-0.5,2.4
	c0,0.9,0.2,1.7,0.5,2.5c0.3,0.7,0.8,1.3,1.4,1.7C84,20.6,84.8,20.9,85.7,20.9z"/>
<path class="st0" d="M65.4,24.6c-1.4,0-2.6-0.2-3.7-0.6c-1.1-0.4-2-1.1-2.7-1.9s-1.3-1.7-1.7-2.8c-0.4-1.1-0.6-2.3-0.6-3.6
	c0-1.6,0.3-3,1-4.3c0.7-1.2,1.6-2.2,2.8-2.9s2.6-1.1,4.2-1.1c0.7,0,1.3,0.1,2,0.3c0.6,0.2,1.2,0.5,1.7,0.8c0.5,0.4,0.9,0.8,1.3,1.3
	l0,0V0.9H74v14.9c0,1.8-0.4,3.4-1.1,4.7c-0.7,1.3-1.7,2.3-3,3.1C68.7,24.2,67.1,24.6,65.4,24.6z M65.4,20.9c0.9,0,1.6-0.2,2.2-0.6
	s1.1-1,1.4-1.7s0.5-1.5,0.5-2.4c0-0.9-0.2-1.7-0.5-2.4s-0.8-1.3-1.4-1.7s-1.4-0.6-2.2-0.6c-0.9,0-1.6,0.2-2.2,0.6
	c-0.6,0.4-1.1,1-1.4,1.7c-0.3,0.7-0.5,1.5-0.5,2.4c0,0.9,0.2,1.7,0.5,2.4c0.3,0.7,0.8,1.3,1.4,1.7C63.8,20.6,64.5,20.9,65.4,20.9z"
	/>
<path class="st0" d="M45.7,24.6c-1.7,0-3.2-0.4-4.5-1.1c-1.3-0.8-2.4-1.8-3.1-3.1c-0.8-1.3-1.2-2.8-1.2-4.4s0.4-3,1.2-4.3
	s1.8-2.3,3.1-3.1c1.3-0.8,2.8-1.2,4.5-1.2s3.2,0.4,4.5,1.2c1.3,0.7,2.4,1.8,3.1,3.1c0.8,1.3,1.2,2.7,1.2,4.3s-0.4,3.1-1.2,4.4
	s-1.8,2.3-3.1,3.1C48.9,24.2,47.4,24.6,45.7,24.6z M45.7,20.9c0.9,0,1.7-0.2,2.3-0.6c0.7-0.4,1.2-1,1.5-1.7c0.4-0.7,0.5-1.5,0.5-2.4
	c0-0.9-0.2-1.7-0.5-2.4s-0.8-1.3-1.5-1.7c-0.6-0.4-1.4-0.6-2.3-0.6s-1.7,0.2-2.3,0.6c-0.6,0.4-1.1,1-1.5,1.7
	c-0.3,0.7-0.5,1.5-0.5,2.4c0,0.9,0.2,1.7,0.5,2.4c0.4,0.7,0.9,1.3,1.5,1.7C44.1,20.6,44.8,20.9,45.7,20.9z"/>
<path class="st0" d="M18.4,24.6c-1.3,0-2.4-0.3-3.4-0.9s-1.8-1.4-2.4-2.4c-0.6-1-0.9-2.2-0.9-3.5V7.6c0-0.4-0.1-0.7-0.3-1.1
	c-0.2-0.3-0.4-0.6-0.8-0.8c-0.3-0.2-0.7-0.3-1.1-0.3S8.9,5.6,8.6,5.8C8.3,5.9,8.1,6.2,7.9,6.5S7.6,7.2,7.6,7.6v16.6H3V8.1
	c0-1.2,0.3-2.4,0.8-3.4c0.6-1,1.3-1.8,2.3-2.4s2.2-0.9,3.5-0.9s2.5,0.3,3.5,0.9s1.8,1.4,2.3,2.4c0.6,1,0.8,2.1,0.8,3.4v10.3
	c0,0.4,0.1,0.7,0.3,1.1c0.2,0.3,0.4,0.6,0.7,0.8c0.3,0.2,0.7,0.3,1.1,0.3s0.7-0.1,1.1-0.3c0.3-0.2,0.6-0.4,0.8-0.8s0.3-0.7,0.3-1.1
	V8.1c0-1.2,0.3-2.4,0.8-3.4c0.6-1,1.3-1.8,2.3-2.4s2.2-0.9,3.5-0.9s2.5,0.3,3.5,0.9s1.8,1.4,2.3,2.4c0.6,1,0.8,2.1,0.8,3.4v16.1
	h-4.6V7.6c0-0.4-0.1-0.7-0.3-1.1c-0.2-0.3-0.4-0.6-0.7-0.8S27.4,5.4,27,5.4s-0.7,0.1-1.1,0.3s-0.6,0.4-0.8,0.8
	c-0.2,0.3-0.3,0.7-0.3,1.1v10.3c0,1.3-0.3,2.5-0.9,3.5s-1.4,1.8-2.4,2.4C20.9,24.3,19.7,24.6,18.4,24.6z"/>
</svg>
